<svg version="1.0" xmlns="http://www.w3.org/2000/svg" width="700.000000pt" height="700.000000pt"
	viewBox="0 0 700.000000 700.000000" preserveAspectRatio="xMidYMid meet">
	<g transform="translate(0.000000,700.000000) scale(0.100000,-0.100000)" fill="#000000" stroke="none">
		<path d="M4077 5942 c-8 -9 -19 -30 -23 -47 -4 -16 -17 -50 -29 -75 -12 -25
-28 -69 -34 -98 -6 -29 -22 -74 -35 -100 -13 -26 -29 -72 -35 -102 -7 -30 -20
-69 -31 -86 -10 -18 -28 -66 -39 -107 -11 -41 -29 -90 -40 -108 -11 -19 -24
-60 -30 -93 -6 -32 -19 -72 -30 -90 -11 -17 -29 -66 -40 -108 -11 -42 -29 -91
-40 -110 -10 -18 -24 -57 -30 -86 -6 -29 -22 -74 -35 -100 -13 -26 -29 -72
-35 -102 -7 -30 -21 -70 -31 -88 -11 -18 -28 -63 -37 -100 -9 -37 -27 -87 -39
-112 -13 -25 -28 -69 -35 -99 -6 -30 -22 -74 -35 -98 -12 -24 -28 -69 -34
-101 -7 -31 -23 -75 -35 -97 -13 -22 -28 -65 -34 -95 -7 -30 -22 -75 -35 -100
-13 -25 -29 -70 -35 -100 -6 -30 -22 -75 -35 -100 -13 -25 -28 -69 -35 -98 -6
-29 -22 -74 -35 -100 -13 -26 -29 -72 -36 -102 -7 -30 -23 -75 -35 -100 -12
-25 -28 -70 -35 -100 -7 -30 -22 -70 -33 -88 -11 -19 -26 -64 -34 -100 -7 -36
-23 -80 -34 -99 -12 -18 -27 -60 -35 -93 -8 -33 -25 -82 -38 -108 -13 -26 -29
-72 -35 -102 -6 -30 -22 -75 -35 -100 -13 -25 -28 -69 -35 -98 -6 -29 -22 -74
-35 -100 -13 -26 -29 -72 -36 -102 -7 -30 -21 -70 -31 -88 -11 -18 -26 -63
-35 -100 -9 -37 -25 -81 -35 -97 -10 -17 -27 -65 -38 -108 -12 -43 -30 -94
-41 -114 -10 -20 -24 -61 -31 -92 -6 -31 -20 -74 -30 -95 -10 -22 -17 -41 -15
-43 2 -2 35 -12 74 -23 38 -11 85 -28 104 -39 18 -10 58 -24 88 -31 30 -7 73
-22 95 -33 22 -11 62 -26 90 -33 70 -19 71 -17 142 196 14 41 36 100 49 130
13 30 29 78 36 105 6 28 24 77 40 110 15 33 28 72 28 86 0 14 11 48 25 75 14
27 35 83 46 124 11 41 27 85 34 97 8 12 22 52 31 90 9 37 27 86 39 108 13 22
28 66 35 97 6 32 22 77 34 101 13 24 29 67 35 95 6 29 22 74 35 100 13 26 29
72 36 102 7 30 23 76 36 102 13 26 29 71 35 100 6 29 20 68 30 86 11 19 28 67
39 107 11 40 28 88 39 107 10 18 24 58 30 88 7 30 22 75 35 100 13 25 28 69
35 98 6 29 22 74 35 100 13 26 29 72 36 102 7 30 21 70 32 89 10 18 26 63 34
100 8 36 24 81 34 99 11 18 27 60 35 95 9 34 27 85 41 114 13 28 29 76 35 105
6 29 20 68 30 86 11 19 28 67 39 107 11 40 28 88 39 107 10 18 24 58 30 88 7
30 22 75 35 100 13 25 29 70 36 100 7 30 22 73 33 94 10 22 28 70 38 107 10
37 27 82 38 101 10 18 25 60 31 93 7 33 22 78 35 100 13 22 28 66 34 97 5 31
21 78 35 105 14 26 30 73 37 103 6 30 19 72 29 92 21 43 17 48 -50 67 -25 7
-65 23 -90 36 -25 12 -70 28 -100 34 -30 7 -69 20 -87 31 -30 17 -59 27 -134
44 -18 4 -31 0 -42 -12z"></path>
		<path d="M1345 5079 c-4 -11 -39 -58 -78 -104 -40 -46 -121 -143 -182 -215
-60 -72 -143 -170 -183 -218 -40 -48 -86 -103 -102 -122 -16 -19 -87 -103
-157 -186 -70 -83 -150 -179 -178 -214 -27 -34 -63 -78 -80 -96 -58 -64 -124
-142 -273 -324 -82 -102 -80 -109 106 -329 40 -47 87 -103 105 -125 18 -21 43
-51 57 -67 14 -15 48 -56 75 -90 52 -65 162 -196 221 -264 70 -81 181 -214
269 -324 28 -35 60 -73 71 -84 12 -12 41 -44 63 -72 23 -27 55 -66 71 -85 97
-113 167 -202 192 -241 15 -24 21 -27 58 -22 32 5 53 17 88 50 25 25 62 57 81
71 20 14 47 36 61 49 38 34 111 91 148 114 17 12 32 27 32 35 0 26 -45 86
-191 255 -79 92 -164 193 -189 224 -25 32 -103 126 -175 210 -71 84 -152 181
-180 215 -57 71 -66 82 -199 237 -121 141 -121 145 -30 251 36 42 82 97 102
121 20 24 46 53 58 65 11 11 32 37 45 56 13 19 93 117 179 217 85 99 178 209
205 243 58 72 62 76 198 235 171 199 186 233 125 276 -55 38 -308 260 -308
270 0 5 -22 9 -49 9 -41 0 -51 -3 -56 -21z"></path>
		<path d="M5533 5067 c-17 -18 -49 -46 -70 -64 -66 -55 -106 -90 -160 -137 -29
-25 -62 -50 -73 -56 -50 -27 -20 -81 153 -284 78 -90 175 -204 215 -253 40
-48 132 -158 205 -244 73 -86 155 -184 182 -219 64 -79 192 -229 216 -253 29
-28 25 -87 -8 -124 -16 -17 -46 -52 -68 -77 -22 -26 -51 -60 -65 -75 -14 -16
-47 -57 -75 -92 -47 -58 -206 -248 -278 -330 -18 -20 -66 -78 -107 -129 -41
-50 -139 -166 -217 -257 -78 -90 -149 -180 -157 -198 -25 -52 -21 -81 13 -94
15 -7 46 -29 68 -49 22 -20 56 -50 77 -67 20 -16 53 -44 74 -62 139 -119 164
-131 193 -92 33 43 93 120 132 167 22 26 53 64 70 85 64 78 93 111 127 148 19
21 53 61 75 90 59 75 201 245 275 330 14 15 45 53 70 85 73 92 220 268 275
329 17 19 50 60 75 91 25 31 75 91 112 135 94 111 97 144 19 237 -22 26 -69
83 -105 127 -36 44 -80 96 -98 117 -18 20 -49 55 -68 77 -19 23 -46 55 -60 70
-14 16 -47 57 -75 91 -27 35 -106 129 -175 211 -69 81 -147 175 -175 209 -27
34 -106 128 -175 209 -69 80 -134 158 -145 172 -11 15 -47 60 -81 100 -33 41
-63 82 -67 92 -5 13 -17 17 -49 16 -35 0 -49 -6 -75 -32z"></path>
	</g>
</svg>